<?xml version="1.0" encoding="utf-8"?>
<!-- Generator: Adobe Illustrator 16.0.0, SVG Export Plug-In . SVG Version: 6.00 Build 0)  -->
<!DOCTYPE svg PUBLIC "-//W3C//DTD SVG 1.1//EN" "http://www.w3.org/Graphics/SVG/1.1/DTD/svg11.dtd">
<svg version="1.1" id="Capa_1" xmlns="http://www.w3.org/2000/svg" xmlns:xlink="http://www.w3.org/1999/xlink" x="0px" y="0px"
	 width="100px" height="100px" viewBox="0 0 100 100" enable-background="new 0 0 100 100" xml:space="preserve">
<g>
	<g>
		<path fill="#9F8981" d="M91.211,11.914H8.789C3.949,11.914,0,15.858,0,20.703v58.594c0,4.828,3.931,8.789,8.789,8.789h82.422
			c4.828,0,8.789-3.932,8.789-8.789V20.703C100,15.875,96.068,11.914,91.211,11.914z M89.997,17.773L50.187,57.584L10.031,17.773
			H89.997z M5.859,78.084V21.889l28.219,27.977L5.859,78.084z M10.002,82.227L38.239,53.99l9.894,9.809
			c1.146,1.136,2.994,1.133,4.135-0.009l9.646-9.647l28.084,28.084H10.002z M94.141,78.084L66.057,50l28.084-28.083V78.084z"/>
	</g>
</g>
</svg>
